<svg version="1.1" id="Layer_1" xmlns="http://www.w3.org/2000/svg" xmlns:xlink="http://www.w3.org/1999/xlink" x="0px" y="0px"
	 width="100%" viewBox="0 0 70 62" enable-background="new 0 0 70 62" xml:space="preserve">
<path fill="#FAFAFA" opacity="1.000000" stroke="none" 
	d="
M42.000000,63.000000 
	C28.000000,63.000000 14.500000,63.000000 1.000000,63.000000 
	C1.000000,42.333332 1.000000,21.666666 1.000000,1.000000 
	C24.333334,1.000000 47.666668,1.000000 71.000000,1.000000 
	C71.000000,21.666666 71.000000,42.333332 71.000000,63.000000 
	C61.500000,63.000000 52.000000,63.000000 42.000000,63.000000 
M66.160309,24.626637 
	C63.781044,18.358929 58.312923,16.558878 52.566380,16.205992 
	C42.111446,15.563973 31.608643,15.738324 21.141027,15.247528 
	C17.065578,15.056441 15.660333,16.514788 16.185383,20.378914 
	C16.381243,21.820360 16.362364,23.290983 16.459522,25.082409 
	C21.721348,25.082409 26.663803,25.068924 31.606150,25.086071 
	C36.917233,25.104498 42.245605,24.931404 47.526455,25.348299 
	C48.775269,25.446884 49.864223,27.570467 51.026714,28.762537 
	C49.797997,29.880138 48.718426,31.665144 47.310276,31.979826 
	C44.138054,32.688732 40.803135,32.669601 37.361366,32.961403 
	C37.361366,35.896175 37.361366,38.468567 37.361366,41.995800 
	C44.294323,41.400974 50.989544,41.459312 57.389179,40.112801 
	C64.912743,38.529812 67.523895,33.458481 66.160309,24.626637 
M16.210819,49.067841 
	C16.861256,50.144890 17.431541,52.083076 18.175774,52.152344 
	C21.703341,52.480671 25.278379,52.298988 28.678062,52.298988 
	C28.678062,45.159126 28.678062,38.784389 28.678062,32.446121 
	C24.403915,32.446121 20.524660,32.446121 16.211424,32.446121 
	C16.211424,37.927654 16.211424,43.036324 16.210819,49.067841 
z"/>
<path fill="#121212" opacity="1.000000" stroke="none" 
	d="
M66.250450,25.010725 
	C67.523895,33.458481 64.912743,38.529812 57.389179,40.112801 
	C50.989544,41.459312 44.294323,41.400974 37.361366,41.995800 
	C37.361366,38.468567 37.361366,35.896175 37.361366,32.961403 
	C40.803135,32.669601 44.138054,32.688732 47.310276,31.979826 
	C48.718426,31.665144 49.797997,29.880138 51.026714,28.762537 
	C49.864223,27.570467 48.775269,25.446884 47.526455,25.348299 
	C42.245605,24.931404 36.917233,25.104498 31.606150,25.086071 
	C26.663803,25.068924 21.721348,25.082409 16.459522,25.082409 
	C16.362364,23.290983 16.381243,21.820360 16.185383,20.378914 
	C15.660333,16.514788 17.065578,15.056441 21.141027,15.247528 
	C31.608643,15.738324 42.111446,15.563973 52.566380,16.205992 
	C58.312923,16.558878 63.781044,18.358929 66.250450,25.010725 
z"/>
<path fill="#111111" opacity="1.000000" stroke="none" 
	d="
M16.211121,48.606419 
	C16.211424,43.036324 16.211424,37.927654 16.211424,32.446121 
	C20.524660,32.446121 24.403915,32.446121 28.678062,32.446121 
	C28.678062,38.784389 28.678062,45.159126 28.678062,52.298988 
	C25.278379,52.298988 21.703341,52.480671 18.175774,52.152344 
	C17.431541,52.083076 16.861256,50.144890 16.211121,48.606419 
z"/>
</svg>