<svg width="400" height="400" viewBox="0 0 400 400" xmlns="http://www.w3.org/2000/svg">
  <path d="M199.49 128.36c-.16 1.407-.29 3.637-.29 4.955 0 2.292-.37 7.01-1.229 15.686-.703 7.087-1.701 11.972-3.207 15.7-.2.495-.519 1.305-.708 1.8-5.439 14.227-19.406 26.179-34.856 29.826-1.79.388-3.95.739-4.5.877-2.844.714-9.249 1.335-22.581 2.192-3.73.239-6.836.49-6.902.556-.067.066 3.075.333 6.981.592 22.581 1.498 28.664 2.821 38.702 8.417 4.821 2.688 11.682 8.651 15.006 13.041 7.055 9.319 9.908 19.06 11.186 38.2.228 3.41.537 8 .688 10.2l.275 4 2.479-35.6c1.515-21.487 2.466-27.499 5.357-33.896.422-.932.767-1.768.767-1.857 0-.406 3.872-7.018 4.947-8.447 2.298-3.054 11.228-11.605 13.055-12.501.989-.484 3.267-1.681 5.062-2.66 7.712-4.202 15.279-5.683 36.237-7.093 3.906-.262 7.047-.531 6.981-.597-.065-.066-3.081-.309-6.701-.541-13.683-.875-19.054-1.418-23.581-2.382-1.79-.373-3.94-.658-4.6-.797-.66-.138-1.56-.406-2-.595-.44-.189-1.97-.737-3.4-1.217-11.692-3.929-23.849-15.833-28.37-27.779-.5-1.32-1.051-2.76-1.224-3.2-.315-.798-.969-3.151-1.613-5.8-.713-2.932-1.731-12.817-2.514-24.4-.448-6.621-.531-7.131-.79-4.841z" fill="#000000"/>
</svg>
